<svg width="341" height="80" viewBox="0 0 341 80" fill="none" xmlns="http://www.w3.org/2000/svg">
<path d="M51.7338 6.10628L41.1437 63.4589H25.9027C16.0997 64.2319 20.1545 64.2319 16.0997 64.2319C13.4284 64.2319 10.8524 63.4589 8.37185 61.913C5.8913 60.3671 3.86393 58.1256 2.28974 55.1884C0.763246 52.1997 0 48.6956 0 44.6763C0 40.1417 0.930206 36.0193 2.79062 32.3092C4.69873 28.599 7.25084 25.6876 10.4469 23.5749C13.643 21.4622 17.1015 20.4058 20.8223 20.4058C26.0219 20.4058 29.7427 22.132 31.9848 25.5845L35.5625 6.10628H51.7338ZM16.3859 43.8261C16.3859 45.8357 16.8868 47.4589 17.8886 48.6957C18.938 49.8808 20.3691 50.4734 22.1818 50.4734C24.2808 50.4734 25.9742 49.5974 27.2622 47.8454C28.5979 46.0934 29.2657 43.7488 29.2657 40.8116C29.2657 38.8019 28.741 37.2045 27.6915 36.0193C26.6898 34.7826 25.2825 34.1643 23.4698 34.1643C21.3709 34.1643 19.6536 35.0403 18.3179 36.7923C17.0299 38.5443 16.3859 40.8889 16.3859 43.8261Z" fill="white"/>
<path d="M54.9955 21.1787H71.0952L63.2958 63.4589H47.1961L54.9955 21.1787ZM64.7985 17.7778C62.0317 17.7778 59.8135 17.0048 58.1439 15.4589C56.4743 13.8615 55.6395 11.8776 55.6395 9.50725C55.6395 6.77617 56.5936 4.50886 58.5017 2.70532C60.4098 0.901772 62.8904 0 65.9433 0C68.7101 0 70.9283 0.747181 72.5979 2.24154C74.2675 3.68438 75.1023 5.59098 75.1023 7.96135C75.1023 10.8986 74.1482 13.2689 72.2401 15.0725C70.3797 16.876 67.8992 17.7778 64.7985 17.7778Z" fill="white"/>
<path d="M120.947 21.9517L114.722 55.7295C113.196 64.1288 110.166 70.2609 105.635 74.1256C101.151 78.0419 95.2593 80 87.9607 80C79.9466 80 72.2401 77.9492 67.8899 73.3527L75.4387 62.8406C77.0129 64.1288 78.9449 65.1337 81.2346 65.8551C83.5721 66.628 85.9095 67.0145 88.2469 67.0145C91.2522 67.0145 93.4943 66.3446 94.973 65.0048C96.4995 63.6651 97.5013 61.6554 97.9783 58.9758L98.193 57.8937C95.5216 60.5733 92.2301 61.913 88.3185 61.913C85.3609 61.913 82.5941 61.1916 80.0182 59.7488C77.4422 58.2544 75.3672 56.1159 73.793 53.3333C72.2188 50.5507 71.4317 47.3301 71.4317 43.6715C71.4317 39.5491 72.3619 35.7874 74.2223 32.3865C76.0827 28.934 78.611 26.2029 81.8071 24.1932C85.0509 22.1836 88.6047 21.1787 92.4686 21.1787C98.6223 21.1787 101.411 21.9517 104.805 24.1932L105.563 21.9517H120.947ZM87.7461 42.8213C87.7461 44.4187 88.2469 45.7327 89.2487 46.7633C90.2982 47.7423 91.7054 48.2319 93.4704 48.2319C95.5693 48.2319 97.2389 47.5105 98.4792 46.0676C99.7672 44.6248 100.411 42.7182 100.411 40.3478C100.411 38.7504 99.9103 37.4622 98.9085 36.4831C97.9068 35.4525 96.5234 34.9372 94.7584 34.9372C92.6595 34.9372 90.966 35.6586 89.678 37.1014C88.39 38.5443 87.7461 40.4509 87.7461 42.8213Z" fill="white"/>
<path d="M225.44 21.1787H241.54L233.74 63.4589H217.64L225.44 21.1787ZM235.243 17.7778C232.476 17.7778 230.258 17.0048 228.588 15.4589C226.919 13.8615 226.084 11.8776 226.084 9.50725C226.084 6.77617 227.038 4.50886 228.946 2.70532C230.854 0.901772 233.335 0 236.388 0C239.154 0 241.373 0.747181 243.042 2.24154C244.712 3.68438 245.547 5.59098 245.547 7.96135C245.547 10.8986 244.593 13.2689 242.684 15.0725C240.824 16.876 238.343 17.7778 235.243 17.7778Z" fill="white"/>
<path d="M273.636 20.4058C277.881 20.4058 281.268 21.6425 283.796 24.1159C286.372 26.5894 287.66 30.1449 287.66 34.7826C287.66 36.5346 287.493 38.3124 287.159 40.1159L282.866 63.4589H266.695L270.63 42.2029C270.821 40.9662 270.917 40.1159 270.917 39.6522C270.917 36.6119 269.557 35.0918 266.838 35.0918C263.022 35.0918 260.613 37.7713 259.611 43.1304L255.819 63.4589H239.647L247.447 21.1787H262.688L261.901 25.43C263.57 23.7295 265.407 22.467 267.41 21.6425C269.462 20.818 271.537 20.4058 273.636 20.4058Z" fill="white"/>
<path d="M170.573 21.9517L164.348 55.7295C162.822 64.1288 159.792 70.2608 155.261 74.1256C150.777 78.0418 144.885 80 137.587 80C129.573 80 121.866 77.9492 117.516 73.3526L125.065 62.8406C126.639 64.1288 128.571 65.1336 130.861 65.8551C133.198 66.628 135.536 67.0145 137.873 67.0145C140.878 67.0145 143.12 66.3446 144.599 65.0048C146.126 63.665 147.127 61.6554 147.604 58.9758L147.819 57.8937C145.148 60.5733 141.856 61.913 137.945 61.913C134.987 61.913 132.22 61.1916 129.644 59.7488C127.068 58.2544 124.993 56.1159 123.419 53.3333C121.845 50.5507 121.058 47.3301 121.058 43.6715C121.058 39.5491 121.988 35.7874 123.848 32.3865C125.709 28.934 128.237 26.2029 131.433 24.1932C134.677 22.1836 138.231 21.1787 142.095 21.1787C148.248 21.1787 151.037 21.9517 154.431 24.1932L155.189 21.9517H170.573ZM137.372 42.8212C137.372 44.4187 137.873 45.7327 138.875 46.7633C139.924 47.7423 141.331 48.2319 143.096 48.2319C145.195 48.2319 146.865 47.5105 148.105 46.0676C149.393 44.6248 150.037 42.7182 150.037 40.3478C150.037 38.7504 149.536 37.4621 148.535 36.4831C147.533 35.4525 146.149 34.9372 144.384 34.9372C142.286 34.9372 140.592 35.6586 139.304 37.1014C138.016 38.5443 137.372 40.4509 137.372 42.8212Z" fill="white"/>
<path d="M219.812 21.9517L213.587 55.7295C212.06 64.1288 209.031 70.2608 204.499 74.1256C200.015 78.0418 194.124 80 186.825 80C178.811 80 171.105 77.9492 166.755 73.3526L174.303 62.8406C175.878 64.1288 177.81 65.1336 180.099 65.8551C182.437 66.628 184.774 67.0145 187.112 67.0145C190.117 67.0145 192.359 66.3446 193.838 65.0048C195.364 63.665 196.366 61.6554 196.843 58.9758L197.058 57.8937C194.386 60.5733 191.095 61.913 187.183 61.913C184.226 61.913 181.459 61.1916 178.883 59.7488C176.307 58.2544 174.232 56.1159 172.658 53.3333C171.083 50.5507 170.296 47.3301 170.296 43.6715C170.296 39.5491 171.227 35.7874 173.087 32.3865C174.947 28.934 177.476 26.2029 180.672 24.1932C183.915 22.1836 187.469 21.1787 191.333 21.1787C197.487 21.1787 200.275 21.9517 203.67 24.1932L204.428 21.9517H219.812ZM186.611 42.8212C186.611 44.4187 187.112 45.7327 188.113 46.7633C189.163 47.7423 190.57 48.2319 192.335 48.2319C194.434 48.2319 196.104 47.5105 197.344 46.0676C198.632 44.6248 199.276 42.7182 199.276 40.3478C199.276 38.7504 198.775 37.4621 197.773 36.4831C196.771 35.4525 195.388 34.9372 193.623 34.9372C191.524 34.9372 189.831 35.6586 188.543 37.1014C187.255 38.5443 186.611 40.4509 186.611 42.8212Z" fill="white"/>
<path d="M340.741 21.9517L334.516 55.7295C332.989 64.1288 329.96 70.2608 325.428 74.1256C320.944 78.0418 315.053 80 307.754 80C299.74 80 292.034 77.9492 287.683 73.3526L295.232 62.8406C296.806 64.1288 298.738 65.1336 301.028 65.8551C303.366 66.628 305.703 67.0145 308.04 67.0145C311.046 67.0145 313.288 66.3446 314.767 65.0048C316.293 63.665 317.295 61.6554 317.772 58.9758L317.986 57.8937C315.315 60.5733 312.024 61.913 308.112 61.913C305.154 61.913 302.388 61.1916 299.812 59.7488C297.236 58.2544 295.161 56.1159 293.586 53.3333C292.012 50.5507 291.225 47.3301 291.225 43.6715C291.225 39.5491 292.155 35.7874 294.016 32.3865C295.876 28.934 298.404 26.2029 301.601 24.1932C304.844 22.1836 308.398 21.1787 312.262 21.1787C318.416 21.1787 321.204 21.9517 324.599 24.1932L325.357 21.9517H340.741ZM307.54 42.8212C307.54 44.4187 308.04 45.7327 309.042 46.7633C310.092 47.7423 311.499 48.2319 313.264 48.2319C315.363 48.2319 317.032 47.5105 318.273 46.0676C319.561 44.6248 320.205 42.7182 320.205 40.3478C320.205 38.7504 319.704 37.4621 318.702 36.4831C317.7 35.4525 316.317 34.9372 314.552 34.9372C312.453 34.9372 310.76 35.6586 309.472 37.1014C308.184 38.5443 307.54 40.4509 307.54 42.8212Z" fill="white"/>
</svg>
